REM DIRINDEX 1\2,1\3,1\4,1\5,1\6
REM DIRNAME cjc030,folder01,folder02,folder03,folder04,folder05
TITLE ""
FILE "Disc1Track43.mp3" MP3
  TRACK 01 AUDIO
    TITLE "3:cjc030_01049"
    INDEX 01 00:00:00
  TRACK 02 AUDIO
    TITLE "0:"
    INDEX 01 00:01:07
  TRACK 03 AUDIO
    TITLE "4:cjc030_01050"
    INDEX 01 00:01:13
  TRACK 04 AUDIO
    TITLE "0:"
    INDEX 01 00:03:64
  TRACK 05 AUDIO
    TITLE "5:cjc030_01051"
    INDEX 01 00:03:72
  TRACK 06 AUDIO
    TITLE "0:"
    INDEX 01 00:05:03
  TRACK 07 AUDIO
    TITLE "3:cjc030_01052"
    INDEX 01 00:05:56
  TRACK 08 AUDIO
    TITLE "0:"
    INDEX 01 00:06:71
  TRACK 09 AUDIO
    TITLE "4:cjc030_01053"
    INDEX 01 00:07:03
  TRACK 10 AUDIO
    TITLE "0:"
    INDEX 01 00:09:28
  TRACK 11 AUDIO
    TITLE "5:cjc030_01054"
    INDEX 01 00:09:34
  TRACK 12 AUDIO
    TITLE "0:"
    INDEX 01 00:10:51
  TRACK 13 AUDIO
    TITLE "6:cjc030_01055"
    INDEX 01 00:10:65
  TRACK 14 AUDIO
    TITLE "0:"
    INDEX 01 00:12:34
  TRACK 15 AUDIO
    TITLE "3:cjc030_01056"
    INDEX 01 00:13:08
  TRACK 16 AUDIO
    TITLE "0:"
    INDEX 01 00:14:29
  TRACK 17 AUDIO
    TITLE "4:cjc030_01057"
    INDEX 01 00:14:37
  TRACK 18 AUDIO
    TITLE "0:"
    INDEX 01 00:15:34
  TRACK 19 AUDIO
    TITLE "5:cjc030_01058"
    INDEX 01 00:15:40
  TRACK 20 AUDIO
    TITLE "0:"
    INDEX 01 00:16:61
  TRACK 21 AUDIO
    TITLE "3:cjc030_01059"
    INDEX 01 00:17:37
  TRACK 22 AUDIO
    TITLE "0:"
    INDEX 01 00:18:52
  TRACK 23 AUDIO
    TITLE "4:cjc030_01060"
    INDEX 01 00:18:60
  TRACK 24 AUDIO
    TITLE "0:"
    INDEX 01 00:19:50
  TRACK 25 AUDIO
    TITLE "5:cjc030_01061"
    INDEX 01 00:19:58
  TRACK 26 AUDIO
    TITLE "0:"
    INDEX 01 00:20:73
  TRACK 27 AUDIO
    TITLE "6:cjc030_01062"
    INDEX 01 00:21:11
  TRACK 28 AUDIO
    TITLE "0:"
    INDEX 01 00:22:64
  TRACK 29 AUDIO
    TITLE "3:cjc030_01063"
    INDEX 01 00:23:38
  TRACK 30 AUDIO
    TITLE "0:"
    INDEX 01 00:24:57
  TRACK 31 AUDIO
    TITLE "4:cjc030_01064"
    INDEX 01 00:24:65
  TRACK 32 AUDIO
    TITLE "0:"
    INDEX 01 00:25:54
  TRACK 33 AUDIO
    TITLE "5:cjc030_01065"
    INDEX 01 00:25:64
  TRACK 34 AUDIO
    TITLE "0:"
    INDEX 01 00:27:06
  TRACK 35 AUDIO
    TITLE "6:cjc030_01066"
    INDEX 01 00:27:22
  TRACK 36 AUDIO
    TITLE "0:"
    INDEX 01 00:29:58
  TRACK 37 AUDIO
    TITLE "3:cjc030_01067"
    INDEX 01 00:30:34
  TRACK 38 AUDIO
    TITLE "0:"
    INDEX 01 00:31:49
  TRACK 39 AUDIO
    TITLE "4:cjc030_01068"
    INDEX 01 00:31:57
  TRACK 40 AUDIO
    TITLE "0:"
    INDEX 01 00:33:11
  TRACK 41 AUDIO
    TITLE "5:cjc030_01069"
    INDEX 01 00:33:21
  TRACK 42 AUDIO
    TITLE "0:"
    INDEX 01 00:34:34
  TRACK 43 AUDIO
    TITLE "6:cjc030_01070"
    INDEX 01 00:34:49
  TRACK 44 AUDIO
    TITLE "0:"
    INDEX 01 00:38:61
  TRACK 45 AUDIO
    TITLE "3:cjc030_01071"
    INDEX 01 00:39:35
  TRACK 46 AUDIO
    TITLE "0:"
    INDEX 01 00:40:48
  TRACK 47 AUDIO
    TITLE "4:cjc030_01072"
    INDEX 01 00:40:58
  TRACK 48 AUDIO
    TITLE "0:"
    INDEX 01 00:43:09
  TRACK 49 AUDIO
    TITLE "5:cjc030_01073"
    INDEX 01 00:43:15
  TRACK 50 AUDIO
    TITLE "0:"
    INDEX 01 00:44:30
  TRACK 51 AUDIO
    TITLE "3:cjc030_01074"
    INDEX 01 00:45:06
  TRACK 52 AUDIO
    TITLE "0:"
    INDEX 01 00:46:19
  TRACK 53 AUDIO
    TITLE "4:cjc030_01075"
    INDEX 01 00:46:25
  TRACK 54 AUDIO
    TITLE "0:"
    INDEX 01 00:47:58
  TRACK 55 AUDIO
    TITLE "5:cjc030_01076"
    INDEX 01 00:47:64
  TRACK 56 AUDIO
    TITLE "0:"
    INDEX 01 00:49:04
  TRACK 57 AUDIO
    TITLE "6:cjc030_01077"
    INDEX 01 00:49:18
  TRACK 58 AUDIO
    TITLE "0:"
    INDEX 01 00:53:25
  TRACK 59 AUDIO
    TITLE "3:cjc030_01078"
    INDEX 01 00:53:72
  TRACK 60 AUDIO
    TITLE "0:"
    INDEX 01 00:55:08
  TRACK 61 AUDIO
    TITLE "4:cjc030_01079"
    INDEX 01 00:55:16
  TRACK 62 AUDIO
    TITLE "0:"
    INDEX 01 00:56:31
  TRACK 63 AUDIO
    TITLE "5:cjc030_01080"
    INDEX 01 00:56:37
  TRACK 64 AUDIO
    TITLE "0:"
    INDEX 01 00:57:52
  TRACK 65 AUDIO
    TITLE "6:cjc030_01081"
    INDEX 01 00:57:64
  TRACK 66 AUDIO
    TITLE "0:"
    INDEX 01 01:02:01
  TRACK 67 AUDIO
    TITLE "3:cjc030_01082"
    INDEX 01 01:02:50
  TRACK 68 AUDIO
    TITLE "0:"
    INDEX 01 01:03:61
  TRACK 69 AUDIO
    TITLE "4:cjc030_01083"
    INDEX 01 01:03:69
  TRACK 70 AUDIO
    TITLE "0:"
    INDEX 01 01:06:32
  TRACK 71 AUDIO
    TITLE "5:cjc030_01084"
    INDEX 01 01:06:40
  TRACK 72 AUDIO
    TITLE "0:"
    INDEX 01 01:07:49
  TRACK 73 AUDIO
    TITLE "3:cjc030_01085"
    INDEX 01 01:08:25
  TRACK 74 AUDIO
    TITLE "0:"
    INDEX 01 01:09:48
  TRACK 75 AUDIO
    TITLE "4:cjc030_01086"
    INDEX 01 01:09:57
  TRACK 76 AUDIO
    TITLE "0:"
    INDEX 01 01:10:69
  TRACK 77 AUDIO
    TITLE "5:cjc030_01087"
    INDEX 01 01:11:03
  TRACK 78 AUDIO
    TITLE "0:"
    INDEX 01 01:12:26
